<mxfile host="65bd71144e">
    <diagram id="7515ZH4POYCUTYpn3rM2" name="Page-1">
        <mxGraphModel dx="1367" dy="542" grid="1" gridSize="10" guides="1" tooltips="1" connect="1" arrows="1" fold="1" page="1" pageScale="1" pageWidth="850" pageHeight="1100" math="0" shadow="0">
            <root>
                <mxCell id="0"/>
                <mxCell id="1" parent="0"/>
                <mxCell id="4" value="" style="edgeStyle=none;html=1;fontColor=#000000;" parent="1" source="2" target="3" edge="1">
                    <mxGeometry relative="1" as="geometry"/>
                </mxCell>
                <mxCell id="2" value="&lt;font color=&quot;#000000&quot;&gt;User&lt;br&gt;&lt;/font&gt;" style="rounded=0;whiteSpace=wrap;html=1;fillColor=#eeeeee;strokeColor=#36393d;" parent="1" vertex="1">
                    <mxGeometry x="40" y="170" width="160" height="90" as="geometry"/>
                </mxCell>
                <mxCell id="3" value="&lt;font color=&quot;#000000&quot;&gt;Authentication&lt;br&gt;&lt;/font&gt;" style="rounded=0;whiteSpace=wrap;html=1;fillColor=#eeeeee;strokeColor=#36393d;" parent="1" vertex="1">
                    <mxGeometry x="280" y="170" width="160" height="90" as="geometry"/>
                </mxCell>
                <mxCell id="8" style="edgeStyle=none;html=1;" edge="1" parent="1" source="6" target="3">
                    <mxGeometry relative="1" as="geometry"/>
                </mxCell>
                <mxCell id="6" value="&lt;font color=&quot;#000000&quot;&gt;Clients&lt;/font&gt;" style="whiteSpace=wrap;html=1;fillColor=#eeeeee;strokeColor=#36393d;rounded=0;" vertex="1" parent="1">
                    <mxGeometry x="610" y="60" width="160" height="90" as="geometry"/>
                </mxCell>
                <mxCell id="12" style="edgeStyle=none;html=1;fontColor=#000000;" edge="1" parent="1" source="10" target="3">
                    <mxGeometry relative="1" as="geometry"/>
                </mxCell>
                <mxCell id="10" value="&lt;font color=&quot;#000000&quot;&gt;Categories&lt;/font&gt;" style="whiteSpace=wrap;html=1;fillColor=#eeeeee;strokeColor=#36393d;rounded=0;" vertex="1" parent="1">
                    <mxGeometry x="640" y="250" width="170" height="95" as="geometry"/>
                </mxCell>
                <mxCell id="15" style="edgeStyle=none;html=1;entryX=0.75;entryY=1;entryDx=0;entryDy=0;fontColor=#000000;" edge="1" parent="1" source="13" target="3">
                    <mxGeometry relative="1" as="geometry"/>
                </mxCell>
                <mxCell id="13" value="&lt;font color=&quot;#000000&quot;&gt;Services&lt;/font&gt;" style="whiteSpace=wrap;html=1;fillColor=#eeeeee;strokeColor=#36393d;rounded=0;" vertex="1" parent="1">
                    <mxGeometry x="550" y="430" width="180" height="100" as="geometry"/>
                </mxCell>
                <mxCell id="18" style="edgeStyle=none;html=1;entryX=0.5;entryY=1;entryDx=0;entryDy=0;fontColor=#000000;" edge="1" parent="1" source="16" target="3">
                    <mxGeometry relative="1" as="geometry"/>
                </mxCell>
                <mxCell id="16" value="&lt;font color=&quot;#000000&quot;&gt;Customer Orders&lt;/font&gt;" style="whiteSpace=wrap;html=1;fillColor=#eeeeee;strokeColor=#36393d;rounded=0;" vertex="1" parent="1">
                    <mxGeometry x="290" y="455" width="180" height="95" as="geometry"/>
                </mxCell>
            </root>
        </mxGraphModel>
    </diagram>
</mxfile>